<?xml version="1.0" encoding="UTF-8" standalone="no"?>
<!DOCTYPE svg PUBLIC "-//W3C//DTD SVG 1.1//EN"
 "http://www.w3.org/Graphics/SVG/1.1/DTD/svg11.dtd">
<!-- Generated by graphviz version 2.36.0 (20140111.2315)
 -->
<!-- Title: G Pages: 1 -->
<svg width="253pt" height="270pt"
 viewBox="0.00 0.00 253.20 270.20" xmlns="http://www.w3.org/2000/svg" xmlns:xlink="http://www.w3.org/1999/xlink">
<g id="graph0" class="graph" transform="scale(1 1) rotate(0) translate(21.6 248.6)">
<title>G</title>
<polygon fill="#111111" stroke="none" points="-21.6,21.6 -21.6,-248.6 231.6,-248.6 231.6,21.6 -21.6,21.6"/>
<!-- index.js -->
<g id="node1" class="node"><title>index.js</title>
<path fill="none" stroke="#c6c5fe" d="M56.3333,-124.5C56.3333,-124.5 7.66667,-124.5 7.66667,-124.5 3.83333,-124.5 0,-120.667 0,-116.833 0,-116.833 0,-109.167 0,-109.167 0,-105.333 3.83333,-101.5 7.66667,-101.5 7.66667,-101.5 56.3333,-101.5 56.3333,-101.5 60.1667,-101.5 64,-105.333 64,-109.167 64,-109.167 64,-116.833 64,-116.833 64,-120.667 60.1667,-124.5 56.3333,-124.5"/>
<text text-anchor="middle" x="32" y="-109.3" font-family="Arial" font-size="14.00" fill="#c6c5fe">index.js</text>
</g>
<!-- lib/command.js -->
<g id="node2" class="node"><title>lib/command.js</title>
<path fill="none" stroke="#cfffac" d="M202.333,-227.5C202.333,-227.5 107.667,-227.5 107.667,-227.5 103.833,-227.5 100,-223.667 100,-219.833 100,-219.833 100,-212.167 100,-212.167 100,-208.333 103.833,-204.5 107.667,-204.5 107.667,-204.5 202.333,-204.5 202.333,-204.5 206.167,-204.5 210,-208.333 210,-212.167 210,-212.167 210,-219.833 210,-219.833 210,-223.667 206.167,-227.5 202.333,-227.5"/>
<text text-anchor="middle" x="155" y="-212.3" font-family="Arial" font-size="14.00" fill="#cfffac">lib/command.js</text>
</g>
<!-- index.js&#45;&gt;lib/command.js -->
<g id="edge1" class="edge"><title>index.js&#45;&gt;lib/command.js</title>
<path fill="none" stroke="#757575" d="M39.5975,-124.377C50.2404,-141.82 72.7824,-175.226 100,-195 102.523,-196.833 105.226,-198.53 108.03,-200.097"/>
<polygon fill="#757575" stroke="#757575" points="106.714,-203.351 117.226,-204.667 109.829,-197.082 106.714,-203.351"/>
</g>
<!-- lib/error.js -->
<g id="node3" class="node"><title>lib/error.js</title>
<path fill="none" stroke="#cfffac" d="M186.333,-186.5C186.333,-186.5 123.667,-186.5 123.667,-186.5 119.833,-186.5 116,-182.667 116,-178.833 116,-178.833 116,-171.167 116,-171.167 116,-167.333 119.833,-163.5 123.667,-163.5 123.667,-163.5 186.333,-163.5 186.333,-163.5 190.167,-163.5 194,-167.333 194,-171.167 194,-171.167 194,-178.833 194,-178.833 194,-182.667 190.167,-186.5 186.333,-186.5"/>
<text text-anchor="middle" x="155" y="-171.3" font-family="Arial" font-size="14.00" fill="#cfffac">lib/error.js</text>
</g>
<!-- index.js&#45;&gt;lib/error.js -->
<g id="edge2" class="edge"><title>index.js&#45;&gt;lib/error.js</title>
<path fill="none" stroke="#757575" d="M49.5985,-124.308C62.8763,-133.068 82.1597,-145.161 100,-154 104.064,-156.014 108.372,-157.97 112.712,-159.826"/>
<polygon fill="#757575" stroke="#757575" points="111.601,-163.153 122.181,-163.713 114.259,-156.677 111.601,-163.153"/>
</g>
<!-- lib/kill.js -->
<g id="node4" class="node"><title>lib/kill.js</title>
<path fill="none" stroke="#cfffac" d="M179.833,-145.5C179.833,-145.5 130.167,-145.5 130.167,-145.5 126.333,-145.5 122.5,-141.667 122.5,-137.833 122.5,-137.833 122.5,-130.167 122.5,-130.167 122.5,-126.333 126.333,-122.5 130.167,-122.5 130.167,-122.5 179.833,-122.5 179.833,-122.5 183.667,-122.5 187.5,-126.333 187.5,-130.167 187.5,-130.167 187.5,-137.833 187.5,-137.833 187.5,-141.667 183.667,-145.5 179.833,-145.5"/>
<text text-anchor="middle" x="155" y="-130.3" font-family="Arial" font-size="14.00" fill="#cfffac">lib/kill.js</text>
</g>
<!-- index.js&#45;&gt;lib/kill.js -->
<g id="edge3" class="edge"><title>index.js&#45;&gt;lib/kill.js</title>
<path fill="none" stroke="#757575" d="M64.1605,-118.408C78.7503,-120.94 96.3437,-123.994 112.08,-126.725"/>
<polygon fill="#757575" stroke="#757575" points="111.651,-130.202 122.102,-128.464 112.848,-123.306 111.651,-130.202"/>
</g>
<!-- lib/promise.js -->
<g id="node5" class="node"><title>lib/promise.js</title>
<path fill="none" stroke="#cfffac" d="M196.333,-104.5C196.333,-104.5 113.667,-104.5 113.667,-104.5 109.833,-104.5 106,-100.667 106,-96.8333 106,-96.8333 106,-89.1667 106,-89.1667 106,-85.3333 109.833,-81.5 113.667,-81.5 113.667,-81.5 196.333,-81.5 196.333,-81.5 200.167,-81.5 204,-85.3333 204,-89.1667 204,-89.1667 204,-96.8333 204,-96.8333 204,-100.667 200.167,-104.5 196.333,-104.5"/>
<text text-anchor="middle" x="155" y="-89.3" font-family="Arial" font-size="14.00" fill="#cfffac">lib/promise.js</text>
</g>
<!-- index.js&#45;&gt;lib/promise.js -->
<g id="edge4" class="edge"><title>index.js&#45;&gt;lib/promise.js</title>
<path fill="none" stroke="#757575" d="M64.1605,-107.85C73.8105,-106.254 84.7744,-104.442 95.6459,-102.645"/>
<polygon fill="#757575" stroke="#757575" points="96.2681,-106.09 105.563,-101.006 95.1265,-99.1837 96.2681,-106.09"/>
</g>
<!-- lib/stdio.js -->
<g id="node6" class="node"><title>lib/stdio.js</title>
<path fill="none" stroke="#cfffac" d="M186.333,-63.5C186.333,-63.5 123.667,-63.5 123.667,-63.5 119.833,-63.5 116,-59.6667 116,-55.8333 116,-55.8333 116,-48.1667 116,-48.1667 116,-44.3333 119.833,-40.5 123.667,-40.5 123.667,-40.5 186.333,-40.5 186.333,-40.5 190.167,-40.5 194,-44.3333 194,-48.1667 194,-48.1667 194,-55.8333 194,-55.8333 194,-59.6667 190.167,-63.5 186.333,-63.5"/>
<text text-anchor="middle" x="155" y="-48.3" font-family="Arial" font-size="14.00" fill="#cfffac">lib/stdio.js</text>
</g>
<!-- index.js&#45;&gt;lib/stdio.js -->
<g id="edge5" class="edge"><title>index.js&#45;&gt;lib/stdio.js</title>
<path fill="none" stroke="#757575" d="M50.1871,-101.649C63.4646,-93.1509 82.4729,-81.5653 100,-73 104.075,-71.0084 108.391,-69.0669 112.735,-67.2195"/>
<polygon fill="#757575" stroke="#757575" points="114.279,-70.3694 122.208,-63.343 111.628,-63.8908 114.279,-70.3694"/>
</g>
<!-- lib/stream.js -->
<g id="node7" class="node"><title>lib/stream.js</title>
<path fill="none" stroke="#cfffac" d="M192.833,-22.5C192.833,-22.5 117.167,-22.5 117.167,-22.5 113.333,-22.5 109.5,-18.6667 109.5,-14.8333 109.5,-14.8333 109.5,-7.16667 109.5,-7.16667 109.5,-3.33333 113.333,0.5 117.167,0.5 117.167,0.5 192.833,0.5 192.833,0.5 196.667,0.5 200.5,-3.33333 200.5,-7.16667 200.5,-7.16667 200.5,-14.8333 200.5,-14.8333 200.5,-18.6667 196.667,-22.5 192.833,-22.5"/>
<text text-anchor="middle" x="155" y="-7.3" font-family="Arial" font-size="14.00" fill="#cfffac">lib/stream.js</text>
</g>
<!-- index.js&#45;&gt;lib/stream.js -->
<g id="edge6" class="edge"><title>index.js&#45;&gt;lib/stream.js</title>
<path fill="none" stroke="#757575" d="M39.8079,-101.482C50.5671,-84.1799 73.07,-51.4419 100,-32 102.528,-30.1747 105.236,-28.4836 108.043,-26.9209"/>
<polygon fill="#757575" stroke="#757575" points="109.84,-29.9365 117.246,-22.3598 106.731,-23.6646 109.84,-29.9365"/>
</g>
</g>
</svg>
