<?xml version="1.0" encoding="UTF-8" standalone="no"?>
<!DOCTYPE svg PUBLIC "-//W3C//DTD SVG 1.1//EN"
 "http://www.w3.org/Graphics/SVG/1.1/DTD/svg11.dtd">
<!-- Generated by graphviz version 2.40.1 (20161225.0304)
 -->
<!-- Title: %0 Pages: 1 -->
<svg width="523pt" height="350pt"
 viewBox="0.00 0.00 522.63 350.40" xmlns="http://www.w3.org/2000/svg" xmlns:xlink="http://www.w3.org/1999/xlink">
<g id="graph0" class="graph" transform="scale(1 1) rotate(0) translate(4 346.4)">
<title>%0</title>
<polygon fill="#ffffff" stroke="transparent" points="-4,4 -4,-346.4 518.6262,-346.4 518.6262,4 -4,4"/>
<text text-anchor="middle" x="257.3131" y="-324" font-family="Roboto Condensed, sans-serif" font-size="16.00" fill="#000000">execa</text>
<!-- execa@4.0.3 -->
<g id="node1" class="node">
<title>execa@4.0.3</title>
<path fill="none" stroke="#000000" d="M56.7751,-167.3011C56.7751,-167.3011 6.3864,-167.3011 6.3864,-167.3011 3.1527,-167.3011 -.081,-164.0674 -.081,-160.8337 -.081,-160.8337 -.081,-154.3663 -.081,-154.3663 -.081,-151.1326 3.1527,-147.8989 6.3864,-147.8989 6.3864,-147.8989 56.7751,-147.8989 56.7751,-147.8989 60.0088,-147.8989 63.2425,-151.1326 63.2425,-154.3663 63.2425,-154.3663 63.2425,-160.8337 63.2425,-160.8337 63.2425,-164.0674 60.0088,-167.3011 56.7751,-167.3011"/>
<text text-anchor="middle" x="31.5807" y="-154.3" font-family="Roboto Condensed, sans-serif" font-size="11.00" fill="#000000">execa@4.0.3</text>
</g>
<!-- get&#45;stream@6.0.0 -->
<g id="node2" class="node">
<title>get&#45;stream@6.0.0</title>
<path fill="none" stroke="#000000" d="M194.7395,-315.3011C194.7395,-315.3011 123.5699,-315.3011 123.5699,-315.3011 120.3362,-315.3011 117.1025,-312.0674 117.1025,-308.8337 117.1025,-308.8337 117.1025,-302.3663 117.1025,-302.3663 117.1025,-299.1326 120.3362,-295.8989 123.5699,-295.8989 123.5699,-295.8989 194.7395,-295.8989 194.7395,-295.8989 197.9732,-295.8989 201.2069,-299.1326 201.2069,-302.3663 201.2069,-302.3663 201.2069,-308.8337 201.2069,-308.8337 201.2069,-312.0674 197.9732,-315.3011 194.7395,-315.3011"/>
<text text-anchor="middle" x="159.1547" y="-302.3" font-family="Roboto Condensed, sans-serif" font-size="11.00" fill="#000000">get&#45;stream@6.0.0</text>
</g>
<!-- execa@4.0.3&#45;&gt;get&#45;stream@6.0.0 -->
<g id="edge1" class="edge">
<title>execa@4.0.3&#45;&gt;get&#45;stream@6.0.0</title>
<path fill="none" stroke="#000000" d="M33.8652,-167.4166C40.0079,-191.6066 59.1881,-254.5116 99.1615,-287.6 101.7583,-289.7495 104.6059,-291.6424 107.6054,-293.3092"/>
<polygon fill="#000000" stroke="#000000" points="106.4182,-296.6171 116.9614,-297.6625 109.3713,-290.2705 106.4182,-296.6171"/>
</g>
<!-- cross&#45;spawn@7.0.3 -->
<g id="node3" class="node">
<title>cross&#45;spawn@7.0.3</title>
<path fill="none" stroke="#000000" d="M199.1828,-278.3011C199.1828,-278.3011 119.1266,-278.3011 119.1266,-278.3011 115.893,-278.3011 112.6593,-275.0674 112.6593,-271.8337 112.6593,-271.8337 112.6593,-265.3663 112.6593,-265.3663 112.6593,-262.1326 115.893,-258.8989 119.1266,-258.8989 119.1266,-258.8989 199.1828,-258.8989 199.1828,-258.8989 202.4164,-258.8989 205.6501,-262.1326 205.6501,-265.3663 205.6501,-265.3663 205.6501,-271.8337 205.6501,-271.8337 205.6501,-275.0674 202.4164,-278.3011 199.1828,-278.3011"/>
<text text-anchor="middle" x="159.1547" y="-265.3" font-family="Roboto Condensed, sans-serif" font-size="11.00" fill="#000000">cross&#45;spawn@7.0.3</text>
</g>
<!-- execa@4.0.3&#45;&gt;cross&#45;spawn@7.0.3 -->
<g id="edge2" class="edge">
<title>execa@4.0.3&#45;&gt;cross&#45;spawn@7.0.3</title>
<path fill="none" stroke="#000000" d="M35.9952,-167.3807C45.0538,-186.3415 67.5797,-228.199 99.1615,-250.6 101.0712,-251.9546 103.0841,-253.2086 105.1693,-254.3695"/>
<polygon fill="#000000" stroke="#000000" points="104.1441,-257.7572 114.6788,-258.8849 107.1467,-251.4338 104.1441,-257.7572"/>
</g>
<!-- strip&#45;final&#45;newline@2.0.0 -->
<g id="node4" class="node">
<title>strip&#45;final&#45;newline@2.0.0</title>
<path fill="none" stroke="#000000" d="M212.6737,-241.3011C212.6737,-241.3011 105.6357,-241.3011 105.6357,-241.3011 102.402,-241.3011 99.1683,-238.0674 99.1683,-234.8337 99.1683,-234.8337 99.1683,-228.3663 99.1683,-228.3663 99.1683,-225.1326 102.402,-221.8989 105.6357,-221.8989 105.6357,-221.8989 212.6737,-221.8989 212.6737,-221.8989 215.9074,-221.8989 219.1411,-225.1326 219.1411,-228.3663 219.1411,-228.3663 219.1411,-234.8337 219.1411,-234.8337 219.1411,-238.0674 215.9074,-241.3011 212.6737,-241.3011"/>
<text text-anchor="middle" x="159.1547" y="-228.3" font-family="Roboto Condensed, sans-serif" font-size="11.00" fill="#000000">strip&#45;final&#45;newline@2.0.0</text>
</g>
<!-- execa@4.0.3&#45;&gt;strip&#45;final&#45;newline@2.0.0 -->
<g id="edge3" class="edge">
<title>execa@4.0.3&#45;&gt;strip&#45;final&#45;newline@2.0.0</title>
<path fill="none" stroke="#000000" d="M40.7463,-167.303C52.9683,-179.71 75.7896,-201.0819 99.1615,-213.6 102.4207,-215.3456 105.8724,-216.9451 109.4079,-218.4064"/>
<polygon fill="#000000" stroke="#000000" points="108.2958,-221.7272 118.8881,-221.9575 110.7513,-215.172 108.2958,-221.7272"/>
</g>
<!-- is&#45;stream@2.0.0 -->
<g id="node5" class="node">
<title>is&#45;stream@2.0.0</title>
<path fill="none" stroke="#000000" d="M192.1346,-204.3011C192.1346,-204.3011 126.1748,-204.3011 126.1748,-204.3011 122.9411,-204.3011 119.7074,-201.0674 119.7074,-197.8337 119.7074,-197.8337 119.7074,-191.3663 119.7074,-191.3663 119.7074,-188.1326 122.9411,-184.8989 126.1748,-184.8989 126.1748,-184.8989 192.1346,-184.8989 192.1346,-184.8989 195.3683,-184.8989 198.602,-188.1326 198.602,-191.3663 198.602,-191.3663 198.602,-197.8337 198.602,-197.8337 198.602,-201.0674 195.3683,-204.3011 192.1346,-204.3011"/>
<text text-anchor="middle" x="159.1547" y="-191.3" font-family="Roboto Condensed, sans-serif" font-size="11.00" fill="#000000">is&#45;stream@2.0.0</text>
</g>
<!-- execa@4.0.3&#45;&gt;is&#45;stream@2.0.0 -->
<g id="edge4" class="edge">
<title>execa@4.0.3&#45;&gt;is&#45;stream@2.0.0</title>
<path fill="none" stroke="#000000" d="M63.444,-166.8412C79.3609,-171.4576 98.8511,-177.1103 116.0799,-182.1071"/>
<polygon fill="#000000" stroke="#000000" points="115.3393,-185.5365 125.9185,-184.9606 117.2892,-178.8135 115.3393,-185.5365"/>
</g>
<!-- merge&#45;stream@2.0.0 -->
<g id="node6" class="node">
<title>merge&#45;stream@2.0.0</title>
<path fill="none" stroke="#000000" d="M201.784,-167.3011C201.784,-167.3011 116.5254,-167.3011 116.5254,-167.3011 113.2918,-167.3011 110.0581,-164.0674 110.0581,-160.8337 110.0581,-160.8337 110.0581,-154.3663 110.0581,-154.3663 110.0581,-151.1326 113.2918,-147.8989 116.5254,-147.8989 116.5254,-147.8989 201.784,-147.8989 201.784,-147.8989 205.0176,-147.8989 208.2513,-151.1326 208.2513,-154.3663 208.2513,-154.3663 208.2513,-160.8337 208.2513,-160.8337 208.2513,-164.0674 205.0176,-167.3011 201.784,-167.3011"/>
<text text-anchor="middle" x="159.1547" y="-154.3" font-family="Roboto Condensed, sans-serif" font-size="11.00" fill="#000000">merge&#45;stream@2.0.0</text>
</g>
<!-- execa@4.0.3&#45;&gt;merge&#45;stream@2.0.0 -->
<g id="edge5" class="edge">
<title>execa@4.0.3&#45;&gt;merge&#45;stream@2.0.0</title>
<path fill="none" stroke="#000000" d="M63.444,-157.6C74.3989,-157.6 87.0465,-157.6 99.4844,-157.6"/>
<polygon fill="#000000" stroke="#000000" points="99.8413,-161.1001 109.8413,-157.6 99.8412,-154.1001 99.8413,-161.1001"/>
</g>
<!-- signal&#45;exit@3.0.3 -->
<g id="node7" class="node">
<title>signal&#45;exit@3.0.3</title>
<path fill="none" stroke="#000000" d="M194.7516,-130.3011C194.7516,-130.3011 123.5578,-130.3011 123.5578,-130.3011 120.3242,-130.3011 117.0905,-127.0674 117.0905,-123.8337 117.0905,-123.8337 117.0905,-117.3663 117.0905,-117.3663 117.0905,-114.1326 120.3242,-110.8989 123.5578,-110.8989 123.5578,-110.8989 194.7516,-110.8989 194.7516,-110.8989 197.9852,-110.8989 201.2189,-114.1326 201.2189,-117.3663 201.2189,-117.3663 201.2189,-123.8337 201.2189,-123.8337 201.2189,-127.0674 197.9852,-130.3011 194.7516,-130.3011"/>
<text text-anchor="middle" x="159.1547" y="-117.3" font-family="Roboto Condensed, sans-serif" font-size="11.00" fill="#000000">signal&#45;exit@3.0.3</text>
</g>
<!-- execa@4.0.3&#45;&gt;signal&#45;exit@3.0.3 -->
<g id="edge6" class="edge">
<title>execa@4.0.3&#45;&gt;signal&#45;exit@3.0.3</title>
<path fill="none" stroke="#000000" d="M63.444,-148.3588C79.3609,-143.7424 98.8511,-138.0897 116.0799,-133.0929"/>
<polygon fill="#000000" stroke="#000000" points="117.2892,-136.3865 125.9185,-130.2394 115.3393,-129.6635 117.2892,-136.3865"/>
</g>
<!-- npm&#45;run&#45;path@4.0.1 -->
<g id="node8" class="node">
<title>npm&#45;run&#45;path@4.0.1</title>
<path fill="none" stroke="#000000" d="M201.8004,-93.3011C201.8004,-93.3011 116.509,-93.3011 116.509,-93.3011 113.2753,-93.3011 110.0416,-90.0674 110.0416,-86.8337 110.0416,-86.8337 110.0416,-80.3663 110.0416,-80.3663 110.0416,-77.1326 113.2753,-73.8989 116.509,-73.8989 116.509,-73.8989 201.8004,-73.8989 201.8004,-73.8989 205.0341,-73.8989 208.2678,-77.1326 208.2678,-80.3663 208.2678,-80.3663 208.2678,-86.8337 208.2678,-86.8337 208.2678,-90.0674 205.0341,-93.3011 201.8004,-93.3011"/>
<text text-anchor="middle" x="159.1547" y="-80.3" font-family="Roboto Condensed, sans-serif" font-size="11.00" fill="#000000">npm&#45;run&#45;path@4.0.1</text>
</g>
<!-- execa@4.0.3&#45;&gt;npm&#45;run&#45;path@4.0.1 -->
<g id="edge7" class="edge">
<title>execa@4.0.3&#45;&gt;npm&#45;run&#45;path@4.0.1</title>
<path fill="none" stroke="#000000" d="M40.7463,-147.897C52.9683,-135.49 75.7896,-114.1181 99.1615,-101.6 102.4207,-99.8544 105.8724,-98.2549 109.4079,-96.7936"/>
<polygon fill="#000000" stroke="#000000" points="110.7513,-100.028 118.8881,-93.2425 108.2958,-93.4728 110.7513,-100.028"/>
</g>
<!-- onetime@5.1.2 -->
<g id="node9" class="node">
<title>onetime@5.1.2</title>
<path fill="none" stroke="#000000" d="M189.255,-56.3011C189.255,-56.3011 129.0544,-56.3011 129.0544,-56.3011 125.8207,-56.3011 122.587,-53.0674 122.587,-49.8337 122.587,-49.8337 122.587,-43.3663 122.587,-43.3663 122.587,-40.1326 125.8207,-36.8989 129.0544,-36.8989 129.0544,-36.8989 189.255,-36.8989 189.255,-36.8989 192.4887,-36.8989 195.7224,-40.1326 195.7224,-43.3663 195.7224,-43.3663 195.7224,-49.8337 195.7224,-49.8337 195.7224,-53.0674 192.4887,-56.3011 189.255,-56.3011"/>
<text text-anchor="middle" x="159.1547" y="-43.3" font-family="Roboto Condensed, sans-serif" font-size="11.00" fill="#000000">onetime@5.1.2</text>
</g>
<!-- execa@4.0.3&#45;&gt;onetime@5.1.2 -->
<g id="edge8" class="edge">
<title>execa@4.0.3&#45;&gt;onetime@5.1.2</title>
<path fill="none" stroke="#000000" d="M35.9952,-147.8193C45.0538,-128.8585 67.5797,-87.001 99.1615,-64.6 103.3773,-61.6097 108.0958,-59.1093 112.9849,-57.02"/>
<polygon fill="#000000" stroke="#000000" points="114.3507,-60.2465 122.51,-53.488 111.917,-53.6832 114.3507,-60.2465"/>
</g>
<!-- human&#45;signals@2.1.0 -->
<g id="node10" class="node">
<title>human&#45;signals@2.1.0</title>
<path fill="none" stroke="#000000" d="M203.9718,-19.3011C203.9718,-19.3011 114.3376,-19.3011 114.3376,-19.3011 111.1039,-19.3011 107.8702,-16.0674 107.8702,-12.8337 107.8702,-12.8337 107.8702,-6.3663 107.8702,-6.3663 107.8702,-3.1326 111.1039,.1011 114.3376,.1011 114.3376,.1011 203.9718,.1011 203.9718,.1011 207.2055,.1011 210.4392,-3.1326 210.4392,-6.3663 210.4392,-6.3663 210.4392,-12.8337 210.4392,-12.8337 210.4392,-16.0674 207.2055,-19.3011 203.9718,-19.3011"/>
<text text-anchor="middle" x="159.1547" y="-6.3" font-family="Roboto Condensed, sans-serif" font-size="11.00" fill="#000000">human&#45;signals@2.1.0</text>
</g>
<!-- execa@4.0.3&#45;&gt;human&#45;signals@2.1.0 -->
<g id="edge9" class="edge">
<title>execa@4.0.3&#45;&gt;human&#45;signals@2.1.0</title>
<path fill="none" stroke="#000000" d="M33.8652,-147.7834C40.0079,-123.5934 59.1881,-60.6884 99.1615,-27.6 100.7007,-26.3259 102.3281,-25.142 104.0229,-24.0418"/>
<polygon fill="#000000" stroke="#000000" points="105.8312,-27.0431 112.9649,-19.2098 102.5033,-20.8847 105.8312,-27.0431"/>
</g>
<!-- which@2.0.2 -->
<g id="node11" class="node">
<title>which@2.0.2</title>
<path fill="none" stroke="#000000" d="M341.7987,-296.3011C341.7987,-296.3011 289.7122,-296.3011 289.7122,-296.3011 286.4785,-296.3011 283.2448,-293.0674 283.2448,-289.8337 283.2448,-289.8337 283.2448,-283.3663 283.2448,-283.3663 283.2448,-280.1326 286.4785,-276.8989 289.7122,-276.8989 289.7122,-276.8989 341.7987,-276.8989 341.7987,-276.8989 345.0324,-276.8989 348.2661,-280.1326 348.2661,-283.3663 348.2661,-283.3663 348.2661,-289.8337 348.2661,-289.8337 348.2661,-293.0674 345.0324,-296.3011 341.7987,-296.3011"/>
<text text-anchor="middle" x="315.7554" y="-283.3" font-family="Roboto Condensed, sans-serif" font-size="11.00" fill="#000000">which@2.0.2</text>
</g>
<!-- cross&#45;spawn@7.0.3&#45;&gt;which@2.0.2 -->
<g id="edge10" class="edge">
<title>cross&#45;spawn@7.0.3&#45;&gt;which@2.0.2</title>
<path fill="none" stroke="#000000" d="M205.7161,-273.9519C227.0036,-276.3987 252.0586,-279.2786 272.8793,-281.6717"/>
<polygon fill="#000000" stroke="#000000" points="272.6968,-285.1737 283.0311,-282.8386 273.4962,-278.2195 272.6968,-285.1737"/>
</g>
<!-- path&#45;key@3.1.1 -->
<g id="node13" class="node">
<title>path&#45;key@3.1.1</title>
<path fill="none" stroke="#000000" d="M347.4035,-167.3011C347.4035,-167.3011 284.1074,-167.3011 284.1074,-167.3011 280.8737,-167.3011 277.64,-164.0674 277.64,-160.8337 277.64,-160.8337 277.64,-154.3663 277.64,-154.3663 277.64,-151.1326 280.8737,-147.8989 284.1074,-147.8989 284.1074,-147.8989 347.4035,-147.8989 347.4035,-147.8989 350.6372,-147.8989 353.8709,-151.1326 353.8709,-154.3663 353.8709,-154.3663 353.8709,-160.8337 353.8709,-160.8337 353.8709,-164.0674 350.6372,-167.3011 347.4035,-167.3011"/>
<text text-anchor="middle" x="315.7554" y="-154.3" font-family="Roboto Condensed, sans-serif" font-size="11.00" fill="#000000">path&#45;key@3.1.1</text>
</g>
<!-- cross&#45;spawn@7.0.3&#45;&gt;path&#45;key@3.1.1 -->
<g id="edge12" class="edge">
<title>cross&#45;spawn@7.0.3&#45;&gt;path&#45;key@3.1.1</title>
<path fill="none" stroke="#000000" d="M200.9004,-258.8925C207.227,-256.6302 213.515,-253.8923 219.1479,-250.6 253.2666,-230.6583 284.6147,-196.2722 301.8651,-175.3655"/>
<polygon fill="#000000" stroke="#000000" points="304.8072,-177.2928 308.362,-167.3121 299.359,-172.8976 304.8072,-177.2928"/>
</g>
<!-- shebang&#45;command@2.0.0 -->
<g id="node14" class="node">
<title>shebang&#45;command@2.0.0</title>
<path fill="none" stroke="#000000" d="M370.0034,-259.3011C370.0034,-259.3011 261.5075,-259.3011 261.5075,-259.3011 258.2738,-259.3011 255.0402,-256.0674 255.0402,-252.8337 255.0402,-252.8337 255.0402,-246.3663 255.0402,-246.3663 255.0402,-243.1326 258.2738,-239.8989 261.5075,-239.8989 261.5075,-239.8989 370.0034,-239.8989 370.0034,-239.8989 373.2371,-239.8989 376.4707,-243.1326 376.4707,-246.3663 376.4707,-246.3663 376.4707,-252.8337 376.4707,-252.8337 376.4707,-256.0674 373.2371,-259.3011 370.0034,-259.3011"/>
<text text-anchor="middle" x="315.7554" y="-246.3" font-family="Roboto Condensed, sans-serif" font-size="11.00" fill="#000000">shebang&#45;command@2.0.0</text>
</g>
<!-- cross&#45;spawn@7.0.3&#45;&gt;shebang&#45;command@2.0.0 -->
<g id="edge14" class="edge">
<title>cross&#45;spawn@7.0.3&#45;&gt;shebang&#45;command@2.0.0</title>
<path fill="none" stroke="#000000" d="M205.7161,-262.9508C218.0736,-261.4515 231.7006,-259.7982 245.032,-258.1807"/>
<polygon fill="#000000" stroke="#000000" points="245.6374,-261.633 255.143,-256.954 244.7942,-254.684 245.6374,-261.633"/>
</g>
<!-- npm&#45;run&#45;path@4.0.1&#45;&gt;path&#45;key@3.1.1 -->
<g id="edge13" class="edge">
<title>npm&#45;run&#45;path@4.0.1&#45;&gt;path&#45;key@3.1.1</title>
<path fill="none" stroke="#000000" d="M196.1268,-93.2108C203.8539,-95.629 211.8626,-98.4474 219.1479,-101.6 245.5993,-113.0466 273.9102,-130.0851 292.9996,-142.36"/>
<polygon fill="#000000" stroke="#000000" points="291.2936,-145.4259 301.5814,-147.9577 295.1179,-139.5629 291.2936,-145.4259"/>
</g>
<!-- mimic&#45;fn@3.1.0 -->
<g id="node12" class="node">
<title>mimic&#45;fn@3.1.0</title>
<path fill="none" stroke="#000000" d="M348.8523,-56.3011C348.8523,-56.3011 282.6586,-56.3011 282.6586,-56.3011 279.4249,-56.3011 276.1912,-53.0674 276.1912,-49.8337 276.1912,-49.8337 276.1912,-43.3663 276.1912,-43.3663 276.1912,-40.1326 279.4249,-36.8989 282.6586,-36.8989 282.6586,-36.8989 348.8523,-36.8989 348.8523,-36.8989 352.086,-36.8989 355.3197,-40.1326 355.3197,-43.3663 355.3197,-43.3663 355.3197,-49.8337 355.3197,-49.8337 355.3197,-53.0674 352.086,-56.3011 348.8523,-56.3011"/>
<text text-anchor="middle" x="315.7554" y="-43.3" font-family="Roboto Condensed, sans-serif" font-size="11.00" fill="#000000">mimic&#45;fn@3.1.0</text>
</g>
<!-- onetime@5.1.2&#45;&gt;mimic&#45;fn@3.1.0 -->
<g id="edge11" class="edge">
<title>onetime@5.1.2&#45;&gt;mimic&#45;fn@3.1.0</title>
<path fill="none" stroke="#000000" d="M195.8706,-46.6C216.7241,-46.6 243.1213,-46.6 265.8342,-46.6"/>
<polygon fill="#000000" stroke="#000000" points="265.9775,-50.1001 275.9774,-46.6 265.9774,-43.1001 265.9775,-50.1001"/>
</g>
<!-- isexe@2.0.0 -->
<g id="node15" class="node">
<title>isexe@2.0.0</title>
<path fill="none" stroke="#000000" d="M487.2583,-296.3011C487.2583,-296.3011 439.7309,-296.3011 439.7309,-296.3011 436.4972,-296.3011 433.2635,-293.0674 433.2635,-289.8337 433.2635,-289.8337 433.2635,-283.3663 433.2635,-283.3663 433.2635,-280.1326 436.4972,-276.8989 439.7309,-276.8989 439.7309,-276.8989 487.2583,-276.8989 487.2583,-276.8989 490.492,-276.8989 493.7257,-280.1326 493.7257,-283.3663 493.7257,-283.3663 493.7257,-289.8337 493.7257,-289.8337 493.7257,-293.0674 490.492,-296.3011 487.2583,-296.3011"/>
<text text-anchor="middle" x="463.4946" y="-283.3" font-family="Roboto Condensed, sans-serif" font-size="11.00" fill="#000000">isexe@2.0.0</text>
</g>
<!-- which@2.0.2&#45;&gt;isexe@2.0.0 -->
<g id="edge15" class="edge">
<title>which@2.0.2&#45;&gt;isexe@2.0.0</title>
<path fill="none" stroke="#000000" d="M348.5436,-286.6C370.3646,-286.6 399.1983,-286.6 422.5286,-286.6"/>
<polygon fill="#000000" stroke="#000000" points="422.8157,-290.1001 432.8157,-286.6 422.8157,-283.1001 422.8157,-290.1001"/>
</g>
<!-- shebang&#45;regex@3.0.0 -->
<g id="node16" class="node">
<title>shebang&#45;regex@3.0.0</title>
<path fill="none" stroke="#000000" d="M508.2908,-259.3011C508.2908,-259.3011 418.6984,-259.3011 418.6984,-259.3011 415.4647,-259.3011 412.2311,-256.0674 412.2311,-252.8337 412.2311,-252.8337 412.2311,-246.3663 412.2311,-246.3663 412.2311,-243.1326 415.4647,-239.8989 418.6984,-239.8989 418.6984,-239.8989 508.2908,-239.8989 508.2908,-239.8989 511.5245,-239.8989 514.7581,-243.1326 514.7581,-246.3663 514.7581,-246.3663 514.7581,-252.8337 514.7581,-252.8337 514.7581,-256.0674 511.5245,-259.3011 508.2908,-259.3011"/>
<text text-anchor="middle" x="463.4946" y="-246.3" font-family="Roboto Condensed, sans-serif" font-size="11.00" fill="#000000">shebang&#45;regex@3.0.0</text>
</g>
<!-- shebang&#45;command@2.0.0&#45;&gt;shebang&#45;regex@3.0.0 -->
<g id="edge16" class="edge">
<title>shebang&#45;command@2.0.0&#45;&gt;shebang&#45;regex@3.0.0</title>
<path fill="none" stroke="#000000" d="M376.6996,-249.6C385.0629,-249.6 393.6544,-249.6 402.027,-249.6"/>
<polygon fill="#000000" stroke="#000000" points="402.1013,-253.1001 412.1013,-249.6 402.1012,-246.1001 402.1013,-253.1001"/>
</g>
</g>
</svg>
